<svg width="16" height="16" viewBox="0 0 16 16" fill="none" xmlns="http://www.w3.org/2000/svg">
<path d="M4.66732 14.6667V7.33334M1.33398 8.66668V13.3333C1.33398 14.0697 1.93094 14.6667 2.66732 14.6667H11.6181C12.6053 14.6667 13.4448 13.9465 13.5949 12.9708L14.3128 8.30412C14.4992 7.09261 13.5619 6.00001 12.3361 6.00001H10.0007C9.63246 6.00001 9.33398 5.70153 9.33398 5.33334V2.97724C9.33398 2.06934 8.59799 1.33334 7.69009 1.33334C7.47354 1.33334 7.2773 1.46087 7.18936 1.65876L4.84328 6.93744C4.73628 7.17819 4.49753 7.33334 4.23407 7.33334H2.66732C1.93094 7.33334 1.33398 7.9303 1.33398 8.66668Z" stroke="#545450" style="stroke:#545450;stroke:color(display-p3 0.3300 0.3300 0.3135);stroke-opacity:1;" stroke-linecap="round" stroke-linejoin="round"/>
</svg>
