<svg width="28" height="28" viewBox="0 0 28 28" fill="none" xmlns="http://www.w3.org/2000/svg">
<path d="M14 0C14 0 14.6543 4.39683 14.867 10.3681C16.5108 10.759 17.7333 12.2366 17.7333 14C17.7333 15.7633 16.5107 17.2407 14.867 17.6317C14.6543 23.6025 14.0001 27.9992 14 28C13.9999 27.9992 13.3454 23.6025 13.1327 17.6317C11.4892 17.2407 10.2667 15.7633 10.2667 14C10.2667 12.2367 11.4891 10.7591 13.1327 10.3681C13.3455 4.39683 14 0 14 0Z" fill="#1A1A19" style="fill:#1A1A19;fill:color(display-p3 0.1020 0.1018 0.0979);fill-opacity:1;"/>
<path d="M10.3703 17.6299C10.3685 17.6337 9.4599 19.5302 7.73031 21.2598C6.00245 22.9876 4.10817 23.896 4.10065 23.8996C4.10065 23.8996 5.00914 22.001 6.74046 20.2697C8.47179 18.5384 10.3703 17.6299 10.3703 17.6299Z" fill="#1A1A19" style="fill:#1A1A19;fill:color(display-p3 0.1020 0.1018 0.0979);fill-opacity:1;"/>
<path d="M17.6299 17.6299C17.642 17.6357 19.534 18.5439 21.2598 20.2697C22.9911 22.001 23.8996 23.8996 23.8996 23.8996C23.8996 23.8996 22.001 22.9909 20.2697 21.2595C18.5445 19.5343 17.6363 17.6432 17.6299 17.6299Z" fill="#1A1A19" style="fill:#1A1A19;fill:color(display-p3 0.1020 0.1018 0.0979);fill-opacity:1;"/>
<path d="M4.43333 13.3C6.88152 13.3 8.86623 13.9998 8.86667 14C8.86667 14 6.8818 14.7 4.43333 14.7C1.9852 14.7 0.000536697 14.0002 0 14C0 14 1.98487 13.3 4.43333 13.3Z" fill="#1A1A19" style="fill:#1A1A19;fill:color(display-p3 0.1020 0.1018 0.0979);fill-opacity:1;"/>
<path d="M23.5667 13.3C26.0149 13.3 27.9996 13.9998 28 14C28 14 26.0151 14.7 23.5667 14.7C21.1185 14.7 19.1339 14.0002 19.1333 14C19.1333 14 21.1182 13.3 23.5667 13.3Z" fill="#1A1A19" style="fill:#1A1A19;fill:color(display-p3 0.1020 0.1018 0.0979);fill-opacity:1;"/>
<path d="M23.8996 4.10065C23.8947 4.11073 22.9862 6.0036 21.2595 7.73031C19.53 9.45987 17.6337 10.3685 17.6299 10.3703C17.6299 10.3703 18.5384 8.47178 20.2697 6.74046C22.001 5.00914 23.8996 4.10065 23.8996 4.10065Z" fill="#1A1A19" style="fill:#1A1A19;fill:color(display-p3 0.1020 0.1018 0.0979);fill-opacity:1;"/>
<path d="M4.10065 4.10042C4.10065 4.10042 5.99921 5.00914 7.73053 6.74046C9.45756 8.46752 10.3659 10.3609 10.3703 10.3701C10.3703 10.3701 8.47179 9.46163 6.74046 7.73031C5.00915 5.99899 4.10065 4.10042 4.10065 4.10042Z" fill="#1A1A19" style="fill:#1A1A19;fill:color(display-p3 0.1020 0.1018 0.0979);fill-opacity:1;"/>
</svg>
